<svg xmlns="http://www.w3.org/2000/svg" style="display: none;"><symbol id="sports-7" viewBox="0 0 58 58"><title>sports-7</title><path style="fill:#67B9CC;" d="M58,36.448l-0.011,0.004c-0.013-0.275-0.13-0.543-0.36-0.729c-0.431-0.35-1.061-0.28-1.406,0.148 c-0.876,1.084-2.021,1.681-3.223,1.681s-2.347-0.597-3.223-1.681c-1.263-1.563-2.959-2.423-4.777-2.423s-3.515,0.86-4.777,2.423 c-0.876,1.084-2.021,1.682-3.223,1.682s-2.347-0.598-3.223-1.682c-1.263-1.563-2.959-2.423-4.777-2.423s-3.515,0.86-4.777,2.423 c-0.876,1.084-2.021,1.682-3.223,1.682s-2.347-0.598-3.223-1.682c-1.263-1.563-2.959-2.423-4.777-2.423s-3.515,0.86-4.777,2.423 C7.347,36.955,6.202,37.552,5,37.552s-2.347-0.598-3.223-1.682c-0.347-0.429-0.976-0.498-1.406-0.148 c-0.23,0.186-0.347,0.454-0.36,0.729L0,36.448v14h0.01c-0.012,0.238,0.051,0.481,0.212,0.681C1.485,52.691,3.182,53.552,5,53.552 s3.515-0.861,4.777-2.424c0.876-1.084,2.021-1.681,3.223-1.681s2.347,0.597,3.223,1.681c1.263,1.563,2.959,2.424,4.777,2.424 s3.515-0.861,4.777-2.424c0.876-1.084,2.021-1.681,3.223-1.681s2.347,0.597,3.223,1.681c1.263,1.563,2.959,2.424,4.777,2.424 s3.515-0.861,4.777-2.424c0.876-1.084,2.021-1.681,3.223-1.681s2.347,0.597,3.223,1.681c1.263,1.563,2.959,2.423,4.777,2.423 s3.515-0.86,4.777-2.423c0.162-0.2,0.225-0.443,0.212-0.681H58V36.448z"/><path style="fill:#ECF0F1;" d="M53.5,38.448L53.5,38.448c-1.381,0-2.5-1.119-2.5-2.5v-26.5H7v26.5c0,1.381-1.119,2.5-2.5,2.5h0 c-1.381,0-2.5-1.119-2.5-2.5V6.826c0-1.313,1.065-2.378,2.378-2.378h48.889C54.77,4.448,56,5.678,56,7.181v28.767 C56,37.328,54.881,38.448,53.5,38.448z"/><circle style="fill:#F29C1F;" cx="38.5" cy="24.948" r="4.5"/><g> <path style="fill:#0096E6;" d="M56.223,49.871c-0.876,1.084-2.021,1.681-3.223,1.681s-2.347-0.597-3.223-1.681 c-1.263-1.563-2.959-2.423-4.777-2.423s-3.515,0.86-4.777,2.423c-0.876,1.084-2.021,1.682-3.223,1.682s-2.347-0.598-3.223-1.682 c-1.263-1.563-2.959-2.423-4.777-2.423s-3.515,0.86-4.777,2.423c-0.876,1.084-2.021,1.682-3.223,1.682s-2.347-0.598-3.223-1.682 c-1.263-1.563-2.959-2.423-4.777-2.423s-3.515,0.86-4.777,2.423C7.347,50.955,6.202,51.552,5,51.552s-2.347-0.598-3.223-1.682 c-0.347-0.429-0.976-0.497-1.406-0.148c-0.429,0.347-0.496,0.977-0.148,1.406C1.485,52.691,3.182,53.552,5,53.552 s3.515-0.861,4.777-2.424c0.876-1.084,2.021-1.681,3.223-1.681s2.347,0.597,3.223,1.681c1.263,1.563,2.959,2.424,4.777,2.424 s3.515-0.861,4.777-2.424c0.876-1.084,2.021-1.681,3.223-1.681s2.347,0.597,3.223,1.681c1.263,1.563,2.959,2.424,4.777,2.424 s3.515-0.861,4.777-2.424c0.876-1.084,2.021-1.681,3.223-1.681s2.347,0.597,3.223,1.681c1.263,1.563,2.959,2.423,4.777,2.423 s3.515-0.86,4.777-2.423c0.348-0.43,0.28-1.06-0.148-1.406C57.198,49.374,56.568,49.442,56.223,49.871z"/> <path style="fill:#0096E6;" d="M56.223,42.871c-0.876,1.084-2.021,1.681-3.223,1.681s-2.347-0.597-3.223-1.681 c-1.263-1.563-2.959-2.423-4.777-2.423s-3.515,0.86-4.777,2.423c-0.876,1.084-2.021,1.682-3.223,1.682s-2.347-0.598-3.223-1.682 c-1.263-1.563-2.959-2.423-4.777-2.423s-3.515,0.86-4.777,2.423c-0.876,1.084-2.021,1.682-3.223,1.682s-2.347-0.598-3.223-1.682 c-1.263-1.563-2.959-2.423-4.777-2.423s-3.515,0.86-4.777,2.423C7.347,43.955,6.202,44.552,5,44.552s-2.347-0.598-3.223-1.682 c-0.347-0.429-0.976-0.498-1.406-0.148c-0.429,0.347-0.496,0.977-0.148,1.406C1.485,45.691,3.182,46.552,5,46.552 s3.515-0.861,4.777-2.424c0.876-1.084,2.021-1.681,3.223-1.681s2.347,0.597,3.223,1.681c1.263,1.563,2.959,2.424,4.777,2.424 s3.515-0.861,4.777-2.424c0.876-1.084,2.021-1.681,3.223-1.681s2.347,0.597,3.223,1.681c1.263,1.563,2.959,2.424,4.777,2.424 s3.515-0.861,4.777-2.424c0.876-1.084,2.021-1.681,3.223-1.681s2.347,0.597,3.223,1.681c1.263,1.563,2.959,2.423,4.777,2.423 s3.515-0.86,4.777-2.423c0.348-0.43,0.28-1.06-0.148-1.406C57.198,42.373,56.568,42.442,56.223,42.871z"/> <path style="fill:#0096E6;" d="M5,39.552c1.818,0,3.515-0.861,4.777-2.424c0.876-1.084,2.021-1.681,3.223-1.681 s2.347,0.597,3.223,1.681c1.263,1.563,2.959,2.424,4.777,2.424s3.515-0.861,4.777-2.424c0.876-1.084,2.021-1.681,3.223-1.681 s2.347,0.597,3.223,1.681c1.263,1.563,2.959,2.424,4.777,2.424s3.515-0.861,4.777-2.424c0.876-1.084,2.021-1.681,3.223-1.681 s2.347,0.597,3.223,1.681c1.263,1.563,2.959,2.423,4.777,2.423s3.515-0.86,4.777-2.423c0.348-0.43,0.28-1.06-0.148-1.406 c-0.431-0.35-1.061-0.28-1.406,0.148c-0.876,1.084-2.021,1.681-3.223,1.681s-2.347-0.597-3.223-1.681 c-1.263-1.563-2.959-2.423-4.777-2.423s-3.515,0.86-4.777,2.423c-0.876,1.084-2.021,1.682-3.223,1.682s-2.347-0.598-3.223-1.682 c-1.263-1.563-2.959-2.423-4.777-2.423s-3.515,0.86-4.777,2.423c-0.876,1.084-2.021,1.682-3.223,1.682s-2.347-0.598-3.223-1.682 c-1.263-1.563-2.959-2.423-4.777-2.423s-3.515,0.86-4.777,2.423C7.347,36.955,6.202,37.552,5,37.552s-2.347-0.598-3.223-1.682 c-0.347-0.429-0.976-0.498-1.406-0.148c-0.429,0.347-0.496,0.977-0.148,1.406C1.485,38.691,3.182,39.552,5,39.552z"/> </g></symbol><symbol id="arrows" viewBox="0 0 56 56"><title>arrows</title><path style="fill:#38454F;" d="M1.046,56c-0.256,0-0.512-0.098-0.707-0.293c-0.391-0.391-0.391-1.023,0-1.414l7.908-7.908 c0.391-0.391,1.023-0.391,1.414,0s0.391,1.023,0,1.414l-7.908,7.908C1.558,55.902,1.302,56,1.046,56z"/><path style="fill:#38454F;" d="M54.954,56c-0.258,0-0.516-0.099-0.711-0.297l-7.816-7.908c-0.388-0.393-0.384-1.026,0.008-1.415 c0.393-0.388,1.026-0.384,1.415,0.008l7.816,7.908c0.388,0.393,0.384,1.026-0.008,1.415C55.462,55.904,55.208,56,54.954,56z"/><circle style="fill:#ECF0F1;" cx="28.046" cy="28" r="27"/><circle style="fill:#FFFFFF;" cx="28.046" cy="28" r="18"/><path style="fill:#E64C3C;" d="M28.046,47c-10.477,0-19-8.523-19-19s8.523-19,19-19s19,8.523,19,19S38.522,47,28.046,47z M28.046,11 c-9.374,0-17,7.626-17,17s7.626,17,17,17s17-7.626,17-17S37.42,11,28.046,11z"/><path style="fill:#E64C3C;" d="M28.046,38c-5.514,0-10-4.486-10-10s4.486-10,10-10s10,4.486,10,10S33.56,38,28.046,38z M28.046,20 c-4.411,0-8,3.589-8,8s3.589,8,8,8s8-3.589,8-8S32.457,20,28.046,20z"/><circle style="fill:#E64C3C;" cx="28.046" cy="28" r="2"/><g> <path style="fill:#F3D55B;" d="M6.046,5V1c0-0.552-0.448-1-1-1s-1,0.448-1,1v3h-3c-0.552,0-1,0.448-1,1s0.448,1,1,1h4 C5.598,6,6.046,5.552,6.046,5z"/> <path style="fill:#F3D55B;" d="M11.046,5c-0.552,0-1,0.448-1,1v4h-4c-0.552,0-1,0.448-1,1s0.448,1,1,1h5c0.552,0,1-0.448,1-1V6 C12.046,5.448,11.598,5,11.046,5z"/> <path style="fill:#F3D55B;" d="M9.046,8V3c0-0.552-0.448-1-1-1s-1,0.448-1,1v4h-4c-0.552,0-1,0.448-1,1s0.448,1,1,1h5 C8.598,9,9.046,8.552,9.046,8z"/> </g><path style="fill:#546A79;" d="M28.046,29c-0.256,0-0.512-0.098-0.707-0.293l-26-26c-0.391-0.391-0.391-1.023,0-1.414 s1.023-0.391,1.414,0l26,26c0.391,0.391,0.391,1.023,0,1.414C28.558,28.902,28.302,29,28.046,29z"/></symbol><symbol id="sports-6" viewBox="0 0 57 57"><title>sports-6</title><path style="fill:#FDD7AD;" d="M28.674,0c-0.191,0-0.347,0.138-0.381,0.326c-0.213,1.178-1.955,5.746-15,18.582 c0,0-4.385,3.72-3.545,12.584c0.292,3.08,0.419,6.169,0.175,9.253C9.502,46.078,7.36,52.829,7.293,54.908 c-0.037,1.163,0.915,1.715,2.072,1.959c2.559,0.541,5.16-0.616,6.713-2.72c1.76-2.385,4.073-6.7,6.075-14.33 c1.326-5.056,5.793-8.748,11.018-8.912c0.093-0.003,0.186-0.005,0.28-0.007c1.828-0.04,3.632-0.748,4.811-2.146 c1.24-1.469,1.99-3.719,0.031-6.844c-3.917-6.25-2.833-10.583,1-13c3.087-1.946,8.361-6.502,10.288-8.238 C49.844,0.432,49.672,0,49.317,0H28.674z"/><path style="fill:#ED7161;" d="M9.924,40.746C9.502,46.078,7.36,52.829,7.293,54.908c-0.037,1.162,0.915,1.715,2.071,1.959 c2.559,0.541,5.16-0.616,6.713-2.72c1.76-2.385,4.073-6.7,6.075-14.33c1.326-5.056,5.793-8.748,11.018-8.912 c0.093-0.003,0.186-0.005,0.28-0.008c1.828-0.04,3.632-0.748,4.811-2.146c1.24-1.469,1.99-3.719,0.031-6.844 c-0.77-1.229-1.34-2.38-1.741-3.461c-9.163,2.272-20.154,9.908-26.654,14.916C10.071,35.822,10.118,38.286,9.924,40.746z"/><path style="fill:#CB465F;" d="M38.262,28.752c0.643-0.762,1.153-1.734,1.223-2.93c0.01-0.171-0.155-0.308-0.323-0.274l-1.521,0.309 c-0.052,0.01-0.097,0.037-0.132,0.077c-0.686,0.77-1.806,0.947-3.088,0.975l-0.376,0.011c-7.864,0.246-14.773,6.097-16.801,13.828 c-2.203,8.398-4.664,13.131-6.448,15.699c-0.115,0.166,0.303,0.516,0.498,0.463c1.209-0.329,2.938-0.167,4.785-2.761 c1.714-2.406,4.057-6.671,6.054-14.254c1.355-5.145,5.911-8.86,11.23-8.994c0.029-0.001,0.059-0.001,0.089-0.002 C35.278,30.857,37.082,30.149,38.262,28.752z"/><path style="fill:#FB7B76;" d="M17.828,14.306l6.679,9.257c1.792-1.004,3.61-1.934,5.418-2.745l-7.97-11.045 C20.801,11.11,19.438,12.615,17.828,14.306z"/><path style="fill:#FF5364;" d="M25.085,6c-0.236,0.292-0.494,0.61-0.767,0.945c-0.667,0.847-1.447,1.791-2.355,2.838l1.534,2.126 h12.999c0.284-0.583,0.656-1.118,1.107-1.605c0.039-0.042,0.079-0.082,0.119-0.123c0.182-0.187,0.375-0.367,0.579-0.539 c0.061-0.051,0.119-0.103,0.182-0.153c0.256-0.203,0.522-0.399,0.81-0.58c0.28-0.177,0.58-0.377,0.892-0.594 c0.008-0.005,0.016-0.011,0.024-0.016c0.314-0.219,0.641-0.455,0.978-0.705l0.02-0.006C41.87,7.098,42.569,6.559,43.274,6H25.085z"/></symbol><symbol id="game-2" viewBox="0 0 58.016 58.016"><title>game-2</title><circle style="fill:#556080;" cx="22.017" cy="40.507" r="17.509"/><g> <path style="fill:#F5EFCA;" d="M49.88,25.681c-1.761-3.56-2.694-7.466-2.694-11.438c0.138-2.48,0.266-5.729,0.754-7.555 c0.311-1.165,0.363-2.396,0.039-3.558c-0.99-3.554-4.076-3.113-4.076-3.113s-3.407-0.487-4.21,3.686 c-0.192,0.999-0.078,2.03,0.181,3.014c0.481,1.831,0.838,5.105,0.746,7.526c0,3.971-0.933,7.878-2.694,11.438 c-0.642,1.298-1.314,2.779-1.916,4.334c0,0,0,0,0,0c2.198,2.926,3.516,6.551,3.516,10.492c0,4.24-1.527,8.109-4.035,11.136 c-0.002,0.025-0.004,0.05-0.006,0.075c0.029,0.092,0.051,0.187,0.083,0.278c1.052,3.01,2.693,6.019,5.053,6.019h6.566 c2.36,0,3.757-3.006,4.809-6.016c1.044-2.987,1.513-6.144,1.513-9.308v-4.371C53.394,34.16,51.642,29.243,49.88,25.681z"/> </g><circle style="fill:#38454F;" cx="14.508" cy="35" r="3"/><circle style="fill:#38454F;" cx="20.508" cy="29" r="3"/><circle style="fill:#38454F;" cx="24.508" cy="37.016" r="3"/><path style="fill:#E64C3C;" d="M40.239,19h7.328c-0.251-1.441-0.381-3.284-0.381-4.756c0.038-0.686,0.076-1.431,0.121-2.189h-6.711 c0.038,0.762,0.05,1.51,0.025,2.189C40.62,15.716,40.491,17.559,40.239,19z"/></symbol><symbol id="sports-5" viewBox="0 0 58 58"><title>sports-5</title><rect x="23" y="1.5" style="fill:#A5A5A4;" width="12" height="11"/><g> <rect x="27" y="40.5" style="fill:#ECF0F1;" width="4" height="13"/> <path style="fill:#ECF0F1;" d="M41.008,38.986l-7.146-12.541l11.146-5.646L34,1.5l-6.082,9.992L23,1.5L12.992,20.798l11.146,5.646 l-7.146,12.541L10,34.262V53.5h13v-11v-5.092c0-1.606,1.302-2.908,2.908-2.908h6.183c1.606,0,2.908,1.302,2.908,2.908V42.5v11h13 V34.262L41.008,38.986z"/> </g><g> <polygon style="fill:#38454F;" points="33,36.5 18.408,36.5 16.992,38.986 13.313,36.5 10,36.5 10,40.5 33,40.5 "/> <polygon style="fill:#38454F;" points="44.687,36.5 41.008,38.986 39.592,36.5 33,36.5 33,40.5 48,40.5 48,36.5 "/> </g><path style="fill:#FFFFFF;" d="M32.829,1.5L19.216,23.864c-0.014,0.023-0.015,0.05-0.027,0.073l1.776,0.9L34.854,2.02 c0.099-0.163,0.129-0.342,0.128-0.52H32.829z"/><g> <path style="fill:#FFFFFF;" d="M35,1.5h-0.017c0,0.178-0.029,0.357-0.128,0.52l-1.805,2.966L43.271,23.5L46,21.656L35,1.5z"/> </g><path style="fill:#ECF0F1;" d="M56.364,15.182l-0.661-1.126l0.025-0.014l-4.535-8.166c-1.5-2.701-4.347-4.376-7.436-4.376H34 l10.393,18.22c0.004-0.003,0.006-0.007,0.01-0.01c0.016-0.012,0.025-0.031,0.042-0.042l3-2c0.46-0.307,1.081-0.183,1.387,0.277 c0.307,0.46,0.183,1.08-0.277,1.387l-1.566,1.044l2.459,1.229c0.494,0.247,0.694,0.848,0.447,1.342 c-0.176,0.351-0.528,0.553-0.896,0.553c-0.15,0-0.303-0.034-0.446-0.105l-4-2c-0.002-0.001-0.003-0.003-0.006-0.004 c-0.102-0.052-0.192-0.126-0.273-0.213c-0.001-0.002-0.003-0.003-0.004-0.005l-10.408,5.272l7.146,12.541l11.761-7.946 C57.964,27.53,59.537,20.589,56.364,15.182z"/><path style="fill:#FFFFFF;" d="M44.547,21.39c0.002,0.001,0.003,0.003,0.006,0.004l4,2c0.144,0.071,0.296,0.105,0.446,0.105 c0.367,0,0.72-0.202,0.896-0.553c0.247-0.494,0.047-1.095-0.447-1.342l-2.459-1.229l1.566-1.044c0.46-0.307,0.584-0.927,0.277-1.387 c-0.306-0.46-0.927-0.584-1.387-0.277l-3,2c-0.017,0.011-0.026,0.03-0.042,0.042c-0.004,0.003-0.006,0.007-0.01,0.01l0.615,1.078 l-0.738,0.374c0.001,0.001,0.003,0.003,0.004,0.005C44.355,21.264,44.445,21.338,44.547,21.39z"/><polygon style="fill:#FFFFFF;" points="43.737,37.142 36.724,24.995 33.862,26.445 41.008,38.986 "/><polygon style="fill:#FFFFFF;" points="23,1.5 13.57,19.684 12.992,20.798 13.72,21.166 15,24.5 24.967,5.375 "/><path style="fill:#ECF0F1;" d="M13.72,21.166c-0.053,0.057-0.097,0.12-0.165,0.166l-3,2c-0.171,0.113-0.363,0.168-0.554,0.168 c-0.323,0-0.641-0.156-0.833-0.445c-0.307-0.46-0.183-1.08,0.277-1.387l3-2c0.354-0.234,0.798-0.213,1.125,0.016L23,1.5h-8.758 c-3.09,0-5.936,1.675-7.436,4.376l-4.535,8.166l0.025,0.014l-0.661,1.126C-1.537,20.589,0.036,27.53,5.231,31.04l11.761,7.946 l7.146-12.541L13.72,21.166z"/><path style="fill:#FFFFFF;" d="M12.445,19.668l-3,2c-0.46,0.307-0.584,0.927-0.277,1.387c0.192,0.289,0.51,0.445,0.833,0.445 c0.19,0,0.383-0.055,0.554-0.168l3-2c0.068-0.045,0.112-0.108,0.165-0.166l-0.727-0.368l0.578-1.114 C13.243,19.455,12.799,19.434,12.445,19.668z"/><polygon style="fill:#FFFFFF;" points="14.252,37.142 21.265,24.995 24.127,26.445 16.981,38.986 "/><rect x="10" y="50.5" style="fill:#D6E3E5;" width="38" height="3"/><path style="fill:#546A79;" d="M32.092,34.5h-6.183C24.302,34.5,23,35.802,23,37.408V42.5v14h4v-16h4v16h4v-14v-5.092 C35,35.802,33.698,34.5,32.092,34.5z"/><path style="fill:#38454F;" d="M25.908,34.5c-0.546,0-1.051,0.16-1.487,0.421L27,40.5h4l2.579-5.579 c-0.436-0.262-0.941-0.421-1.487-0.421H25.908z"/></symbol><symbol id="ball-2" viewBox="0 0 57.197 57.197"><title>ball-2</title><g> <rect x="36.907" y="17.533" transform="matrix(0.7071 -0.7071 0.7071 0.7071 -2.391 32.3936)" style="fill:#BDC3C7;" width="2" height="3.1"/> <rect x="36.907" y="10.299" transform="matrix(0.7071 0.7071 -0.7071 0.7071 19.4805 -23.3337)" style="fill:#BDC3C7;" width="2" height="3.099"/> <rect x="53.259" y="19.715" transform="matrix(-0.7071 -0.7071 0.7071 -0.7071 77.5516 73.5526)" style="fill:#BDC3C7;" width="1.5" height="2"/> <rect x="50.65" y="17.246" transform="matrix(0.7071 -0.7071 0.7071 0.7071 2.1487 41.898)" style="fill:#BDC3C7;" width="2" height="2.218"/> <polygon style="fill:#BDC3C7;" points="48.76,14.051 48.407,13.698 46.992,15.112 47.346,15.465 46.992,15.819 48.407,17.233 48.76,16.88 49.114,17.233 50.528,15.819 50.174,15.465 50.528,15.112 49.114,13.698 48.76,14.051 48.76,14.051 "/> <rect x="44.143" y="17.533" transform="matrix(-0.7071 -0.7071 0.7071 -0.7071 63.5699 64.4975)" style="fill:#BDC3C7;" width="2" height="3.099"/> <polygon style="fill:#BDC3C7;" points="41.878,20.933 41.525,21.287 41.171,20.933 39.757,22.347 40.111,22.701 39.757,23.054 41.171,24.468 41.525,24.115 41.878,24.468 43.292,23.054 42.939,22.701 43.292,22.347 "/> <rect x="43.592" y="25.318" transform="matrix(-0.7071 -0.7071 0.7071 -0.7071 58.4521 76.8483)" style="fill:#BDC3C7;" width="3.099" height="2"/> <rect x="47.48" y="28.406" transform="matrix(-0.7071 -0.7071 0.7071 -0.7071 61.5403 84.3023)" style="fill:#BDC3C7;" width="1.5" height="2"/> <rect x="36.908" y="24.769" transform="matrix(-0.7071 -0.7071 0.7071 -0.7071 46.1023 71.7329)" style="fill:#BDC3C7;" width="2" height="3.099"/> <polygon style="fill:#BDC3C7;" points="36.057,30.29 35.703,29.936 36.057,29.583 34.643,28.168 34.289,28.522 33.936,28.168 32.522,29.583 32.875,29.936 32.522,30.29 33.936,31.704 34.289,31.35 34.643,31.704 "/> <rect x="36.18" y="31.717" transform="matrix(0.7071 -0.7071 0.7071 0.7071 -12.3218 35.9043)" style="fill:#BDC3C7;" width="2" height="2.217"/> <rect x="38.789" y="34.185" transform="matrix(-0.7074 -0.7068 0.7068 -0.7074 42.6414 88.0222)" style="fill:#BDC3C7;" width="1.501" height="2"/> <rect x="27.412" y="35.065" transform="matrix(-0.7071 -0.7071 0.7071 -0.7071 23.1767 81.229)" style="fill:#BDC3C7;" width="2" height="1.5"/> <rect x="30.085" y="31.841" transform="matrix(-0.7071 -0.7071 0.7071 -0.7071 29.632 78.5547)" style="fill:#BDC3C7;" width="2" height="2.599"/> <rect x="29.122" y="25.318" transform="matrix(0.7073 0.7069 -0.7069 0.7073 27.5844 -13.979)" style="fill:#BDC3C7;" width="3.1" height="2"/> <polygon style="fill:#BDC3C7;" points="28.822,23.054 28.468,22.701 28.822,22.347 27.407,20.933 27.054,21.287 26.7,20.933 25.286,22.347 25.64,22.701 25.286,23.054 26.7,24.468 27.054,24.115 27.407,24.468 "/> <rect x="22.85" y="24.606" transform="matrix(-0.7071 -0.7071 0.7071 -0.7071 22.3967 61.087)" style="fill:#BDC3C7;" width="2" height="2.599"/> <rect x="20.176" y="27.829" transform="matrix(-0.7071 -0.7071 0.7071 -0.7071 15.9413 63.7613)" style="fill:#BDC3C7;" width="2" height="1.5"/> <rect x="21.055" y="16.451" transform="matrix(0.7071 0.7071 -0.7071 0.7071 18.7264 -10.3071)" style="fill:#BDC3C7;" width="1.5" height="2"/> <rect x="23.164" y="18.702" transform="matrix(-0.7071 0.7071 -0.7071 -0.7071 55.2594 16.7323)" style="fill:#BDC3C7;" width="2" height="2.218"/> <rect x="29.672" y="17.533" transform="matrix(0.7071 0.7071 -0.7071 0.7071 22.4772 -16.0989)" style="fill:#BDC3C7;" width="2" height="3.1"/> <polygon style="fill:#BDC3C7;" points="33.936,17.233 34.289,16.88 34.643,17.233 36.057,15.819 35.703,15.465 36.057,15.112 34.643,13.698 34.289,14.051 33.936,13.698 32.522,15.112 32.875,15.465 32.522,15.819 "/> <rect x="29.123" y="10.848" transform="matrix(0.7071 0.7071 -0.7071 0.7071 17.3616 -18.2182)" style="fill:#BDC3C7;" width="3.099" height="2"/> <rect x="26.834" y="7.761" transform="matrix(0.7069 0.7073 -0.7073 0.7069 14.2797 -16.9422)" style="fill:#BDC3C7;" width="1.5" height="2"/> <rect x="35.526" y="1.981" transform="matrix(0.7069 0.7073 -0.7073 0.7069 12.739 -24.7832)" style="fill:#BDC3C7;" width="1.5" height="2"/> <rect x="37.635" y="4.231" transform="matrix(-0.7071 0.7071 -0.7071 -0.7071 69.7301 -18.203)" style="fill:#BDC3C7;" width="2" height="2.218"/> <rect x="46.403" y="1.602" transform="matrix(0.7071 0.7071 -0.7071 0.7071 15.547 -32.8298)" style="fill:#BDC3C7;" width="2" height="1.5"/> <rect x="43.729" y="3.727" transform="matrix(0.7071 0.7071 -0.7071 0.7071 16.6547 -30.1559)" style="fill:#BDC3C7;" width="2" height="2.599"/> <polygon style="fill:#BDC3C7;" points="41.878,6.462 41.525,6.816 41.171,6.462 39.757,7.876 40.111,8.23 40.111,8.23 39.757,8.584 41.171,9.998 41.525,9.644 41.878,9.998 43.292,8.584 42.939,8.23 43.292,7.876 "/> <rect x="43.592" y="10.848" transform="matrix(-0.7071 -0.7071 0.7071 -0.7071 68.6844 52.1453)" style="fill:#BDC3C7;" width="3.099" height="2"/> <rect x="50.964" y="10.962" transform="matrix(0.7071 0.7071 -0.7071 0.7071 23.8898 -33.153)" style="fill:#BDC3C7;" width="2" height="2.599"/> <rect x="53.638" y="8.837" transform="matrix(0.7071 0.7071 -0.7071 0.7071 22.7822 -35.8269)" style="fill:#BDC3C7;" width="2" height="1.5"/> </g><circle style="fill:#A4E869;" cx="8.822" cy="11.374" r="8"/><path style="fill:#88C057;" d="M11.822,11.874c0,2.129,1.028,4.013,2.611,5.199c1.474-1.451,2.389-3.467,2.389-5.699 c0-1.929-0.683-3.699-1.821-5.08C13.1,7.427,11.822,9.499,11.822,11.874z"/><path style="fill:#88C057;" d="M2.643,6.293c-1.137,1.382-1.821,3.151-1.821,5.08c0,2.232,0.916,4.248,2.389,5.699 c1.582-1.186,2.611-3.07,2.611-5.199C5.822,9.499,4.544,7.427,2.643,6.293z"/><path style="fill:#556080;" d="M56.316,8.718c-0.666-1.852-1.684-3.471-3.025-4.813c-1.343-1.342-2.962-2.36-4.813-3.025 c-3.793-1.364-8.405-1.132-12.894,0.64c-3.272,1.292-6.396,3.367-9.03,6.002c-2.636,2.636-4.712,5.758-6.004,9.031 c-1.778,4.509-2.006,9.088-0.64,12.894c0.025,0.068,0.058,0.13,0.083,0.198c-1.133,3.027-5.475,7.375-7.85,9.751l-0.707,0.707 l5.656,5.657l0.707-0.707c2.035-2.034,6.704-6.696,9.753-7.85c0.067,0.025,0.129,0.058,0.196,0.082 c1.63,0.585,3.408,0.883,5.285,0.883c2.489,0,5.049-0.512,7.608-1.522c3.272-1.292,6.396-3.368,9.03-6.003 c2.636-2.636,4.712-5.759,6.004-9.031C57.454,17.103,57.682,12.524,56.316,8.718z M17.093,42.933l-2.83-2.831 c2.649-2.674,5.359-5.576,6.846-8.165c0.52,0.844,1.126,1.624,1.826,2.324c0.702,0.702,1.484,1.311,2.333,1.831 C22.434,37.73,19.246,40.793,17.093,42.933z M53.816,20.878c-1.192,3.02-3.114,5.907-5.558,8.351 c-2.443,2.443-5.331,4.365-8.351,5.557c-4.012,1.585-8.102,1.809-11.424,0.636l-0.532-0.217c-0.688-0.281-1.331-0.618-1.926-1.005 c-0.063-0.042-0.122-0.088-0.185-0.131c-0.231-0.157-0.459-0.318-0.675-0.492c-0.284-0.23-0.559-0.471-0.818-0.73 c-0.26-0.26-0.502-0.536-0.733-0.821c-0.164-0.205-0.317-0.422-0.467-0.64c-0.052-0.074-0.107-0.145-0.156-0.221 c-0.187-0.289-0.364-0.588-0.526-0.899c-0.002-0.004-0.005-0.008-0.007-0.013c-0.169-0.324-0.326-0.661-0.468-1.009l-0.216-0.528 c-1.181-3.338-0.958-7.393,0.634-11.429c1.192-3.02,3.114-5.908,5.558-8.351c2.442-2.443,5.33-4.364,8.351-5.556 c2.325-0.917,4.638-1.383,6.875-1.383c1.646,0,3.195,0.257,4.608,0.765c1.571,0.565,2.942,1.425,4.075,2.557 c1.131,1.131,1.991,2.502,2.557,4.075C55.635,12.743,55.416,16.821,53.816,20.878z"/><path style="fill:#38454F;" d="M1.584,55.762l-0.151-0.151c-1.911-1.911-1.911-5.009,0-6.92l9.429-9.429c0.8-0.8,2.098-0.8,2.898,0 l4.173,4.173c0.8,0.8,0.8,2.098,0,2.898l-9.429,9.429C6.593,57.673,3.495,57.673,1.584,55.762z"/></symbol><symbol id="ball-1" viewBox="0 0 56.662 56.662"><title>ball-1</title><path style="fill:#CB8252;" d="M3.238,2.89c0.902-0.859,2.306-0.696,3,0.27l25.344,34.708c1.672,2.29,3.449,3.454,6.284,3.463h16.18 c0.137,0,0.272,0.01,0.403,0.028c1.809,0.253,2.733,2.344,1.911,3.976l-1.803,3.581c-0.375,0.75-1.295,1.415-2.133,1.415H37.865 c-3.529,0-6.818-1.784-8.744-4.741L3.011,5.493C2.48,4.677,2.533,3.562,3.238,2.89z"/><polygon style="fill:#F0C419;" points="40.662,50.331 47.662,50.331 49.662,41.331 42.662,41.331 "/><polygon style="fill:#546A79;" points="7.487,12.367 13.11,21.002 17.216,18.195 10.959,9.626 "/><g> <path style="fill:#7F5B53;" d="M31.581,37.868c0.176,0.242,0.361,0.467,0.549,0.687L53.659,5.493 c0.531-0.816,0.479-1.931-0.226-2.603c-0.902-0.86-2.306-0.696-3,0.27L28.335,33.423L31.581,37.868z"/> <path style="fill:#7F5B53;" d="M24.545,38.563c-1.512,1.827-3.15,2.761-5.68,2.769H2.686c-1.097,0-1.911,0.352-2.38,1.241 c-0.451,0.853-0.375,1.892,0.05,2.758l1.758,3.586c0.375,0.75,0.914,1.415,1.753,1.415h2.797c0-2.2,1.8-4,4-4h10 c1.597,0,2.972,0.954,3.612,2.315c1.372-0.849,2.574-1.981,3.482-3.375l0.578-0.888L24.545,38.563z"/> </g><path style="fill:#F9EAB0;" d="M10.662,46.331h5.111l-1.111-5h-7l1.21,5.445C9.414,46.501,10.017,46.331,10.662,46.331z"/><polygon style="fill:#CBB292;" points="43.276,21.438 48.86,12.862 45.225,10.292 39.059,18.737 "/><path style="fill:#38454F;" d="M20.662,54.331h-10c-2.2,0-4-1.8-4-4v0c0-2.2,1.8-4,4-4h10c2.2,0,4,1.8,4,4v0 C24.662,52.531,22.862,54.331,20.662,54.331z"/></symbol><symbol id="sports-4" viewBox="0 0 56.912 56.912"><title>sports-4</title><path style="fill:#38454F;" d="M48.028,52.98h-3v-8h3c2.209,0,4,1.791,4,4v0C52.028,51.189,50.237,52.98,48.028,52.98z"/><path style="fill:#E6E7E8;" d="M33.997,46.141l11.031,1.839v-3l-11.699-3.9c-0.187-0.063-0.394-0.024-0.545,0.103l-2.756,2.297 l2.229,1.857l-3.643,3.643l3.643,3.643l-2.229,1.857l2.768,2.307c0.144,0.12,0.34,0.157,0.518,0.098l11.714-3.905v-3l-11.031,1.839 c-0.033-0.199-0.108-0.392-0.262-0.546l-2.293-2.293l2.293-2.293C33.888,46.533,33.964,46.34,33.997,46.141z"/><path style="fill:#E6E7E8;" d="M2.639,54.379c-0.052-0.012-0.108-0.011-0.158-0.029C2.531,54.369,2.587,54.367,2.639,54.379z"/><path style="fill:#E6E7E8;" d="M3.301,54.354c-0.115,0.033-0.23,0.068-0.346,0.071C3.071,54.422,3.185,54.388,3.301,54.354z"/><path style="fill:#E6E7E8;" d="M3.947,53.994c-0.141,0.141-0.302,0.245-0.472,0.318C3.644,54.239,3.806,54.135,3.947,53.994z"/><path style="fill:#E6E7E8;" d="M46.944,30.261c3.855-3.855,6.319-8.608,6.937-13.383c0.593-4.582-0.601-8.626-3.363-11.388 c-2.297-2.297-5.462-3.511-9.154-3.511c-5.433,0-11.131,2.582-15.633,7.084c-5.144,5.144-7.794,11.999-6.917,17.891 c0.474,3.184-0.164,6.333-1.794,8.868l-0.118,0.183l-0.116,0.18l-0.152,0.152c-0.212,0.212-0.312,0.677-0.252,0.837l0.63,1.153 l1.165,0.637c0,0,0,0,0,0c0.005,0,0.044,0.01,0.115,0.01c0.279,0,0.58-0.135,0.711-0.266l0.146-0.146l0.173-0.113 c1.78-1.165,3.861-1.781,6.017-1.781c0.864,0,1.731,0.1,2.578,0.297c1.076,0.251,2.219,0.378,3.397,0.378 C36.746,37.343,42.443,34.762,46.944,30.261z"/><path style="fill:#38454F;" d="M2.922,54.432c0.011,0,0.022-0.006,0.033-0.007c-0.108,0.003-0.212-0.022-0.315-0.046 C2.733,54.401,2.824,54.432,2.922,54.432z"/><path style="fill:#38454F;" d="M3.475,54.312c-0.057,0.024-0.116,0.026-0.174,0.042C3.359,54.338,3.418,54.337,3.475,54.312z"/><path style="fill:#38454F;" d="M2.481,54.35c-0.151-0.057-0.292-0.142-0.411-0.261C2.189,54.208,2.33,54.293,2.481,54.35z"/><path style="fill:#38454F;" d="M33.765,39.191c0.147-0.019,0.294-0.04,0.441-0.062c0.28-0.042,0.561-0.09,0.842-0.144 c0.141-0.027,0.281-0.052,0.422-0.082c0.332-0.07,0.665-0.15,0.998-0.237c0.085-0.022,0.17-0.04,0.256-0.064 c0.418-0.114,0.835-0.241,1.252-0.381c0.106-0.035,0.212-0.076,0.318-0.114c0.312-0.109,0.624-0.224,0.934-0.347 c0.144-0.057,0.287-0.118,0.43-0.178c0.28-0.117,0.559-0.24,0.837-0.369c0.143-0.066,0.286-0.132,0.429-0.202 c0.302-0.147,0.603-0.302,0.903-0.463c0.11-0.059,0.22-0.114,0.329-0.174c0.406-0.225,0.81-0.461,1.209-0.71 c0.07-0.044,0.139-0.093,0.21-0.137c0.328-0.209,0.654-0.425,0.976-0.651c0.131-0.092,0.26-0.188,0.391-0.282 c0.264-0.192,0.526-0.388,0.786-0.591c0.136-0.106,0.272-0.214,0.407-0.323c0.264-0.214,0.524-0.435,0.783-0.661 c0.116-0.102,0.234-0.201,0.349-0.305c0.369-0.332,0.733-0.673,1.089-1.03c8.613-8.613,10.213-20.961,3.574-27.6 c-0.384-0.384-0.792-0.734-1.212-1.063c-0.136-0.106-0.279-0.2-0.419-0.301c-0.294-0.213-0.594-0.417-0.903-0.605 c-0.169-0.102-0.342-0.197-0.515-0.292c-0.3-0.164-0.606-0.317-0.918-0.459c-0.179-0.081-0.358-0.163-0.541-0.237 c-0.339-0.137-0.686-0.257-1.036-0.369c-0.161-0.052-0.319-0.11-0.483-0.157c-0.516-0.146-1.04-0.271-1.576-0.364 c-0.034-0.006-0.069-0.008-0.102-0.013c-0.505-0.085-1.019-0.144-1.539-0.182c-0.181-0.013-0.365-0.015-0.548-0.023 c-0.413-0.018-0.828-0.029-1.247-0.019c-0.102,0.003-0.204,0.005-0.306,0.009c-0.533,0.022-1.071,0.065-1.612,0.132 c-0.095,0.012-0.191,0.027-0.287,0.04c-0.565,0.078-1.131,0.173-1.7,0.299c-0.01,0.002-0.021,0.005-0.031,0.008 c-0.565,0.126-1.131,0.282-1.697,0.456c-0.09,0.027-0.179,0.053-0.269,0.081c-0.549,0.176-1.097,0.375-1.643,0.595 c-0.104,0.042-0.208,0.085-0.312,0.129c-0.552,0.231-1.102,0.48-1.647,0.755c-0.063,0.032-0.126,0.067-0.189,0.1 c-0.532,0.274-1.059,0.569-1.581,0.885c-0.058,0.035-0.116,0.067-0.173,0.102c-0.533,0.328-1.059,0.684-1.578,1.056 c-0.098,0.07-0.196,0.141-0.294,0.212c-0.509,0.375-1.011,0.77-1.503,1.186c-0.084,0.071-0.166,0.145-0.25,0.218 c-0.511,0.444-1.016,0.903-1.505,1.392c-5.802,5.802-8.42,13.29-7.481,19.6c0.388,2.609-0.071,5.273-1.498,7.492l-0.118,0.183 c-0.773,0.773-1.105,2.177-0.625,3.136l2.683,2.683c0.128,0.065,0.263,0.116,0.405,0.152c0.048,0.012,0.098,0.02,0.147,0.029 c0.121,0.022,0.245,0.036,0.371,0.041c0.051,0.002,0.102,0.005,0.154,0.004c0.168-0.004,0.338-0.018,0.507-0.051 c0.006-0.001,0.012-0.001,0.018-0.002c0.174-0.035,0.346-0.089,0.512-0.152c0.049-0.018,0.095-0.04,0.143-0.061 c0.121-0.053,0.237-0.112,0.349-0.179c0.044-0.026,0.09-0.052,0.132-0.08c0.145-0.097,0.283-0.202,0.402-0.321 c0.33-0.216,0.674-0.399,1.025-0.567c0.096-0.046,0.193-0.088,0.29-0.131c0.293-0.128,0.592-0.24,0.895-0.335 c0.071-0.022,0.14-0.049,0.211-0.07c0.367-0.105,0.74-0.184,1.117-0.242c0.092-0.014,0.184-0.021,0.277-0.033 c0.305-0.037,0.611-0.059,0.919-0.065c0.063-0.001,0.124-0.013,0.187-0.013c0.044,0,0.088,0.007,0.132,0.008 c0.225,0.003,0.45,0.019,0.676,0.039c0.108,0.009,0.216,0.013,0.324,0.026c0.332,0.041,0.664,0.096,0.993,0.172 c0.549,0.128,1.114,0.216,1.684,0.287c0.14,0.017,0.28,0.033,0.422,0.047c0.572,0.056,1.15,0.095,1.737,0.095 c0.402,0,0.807-0.016,1.215-0.042c0.125-0.008,0.251-0.022,0.377-0.032C33.186,39.256,33.475,39.228,33.765,39.191z M25.339,36.679 c-2.156,0-4.237,0.616-6.017,1.781l-0.173,0.113l-0.146,0.146c-0.131,0.131-0.433,0.266-0.711,0.266c-0.071,0-0.11-0.01-0.115-0.01 c-0.001,0-0.001,0,0,0l-1.165-0.637l-0.63-1.153c-0.06-0.16,0.04-0.625,0.252-0.837l0.152-0.152l0.116-0.18l0.118-0.183 c1.631-2.535,2.268-5.685,1.794-8.868c-0.877-5.892,1.774-12.748,6.917-17.891c4.502-4.502,10.2-7.084,15.633-7.084 c3.692,0,6.858,1.214,9.154,3.511c2.762,2.762,3.957,6.807,3.363,11.388c-0.618,4.775-3.082,9.528-6.937,13.383 c-4.501,4.501-10.197,7.082-15.629,7.082c-1.178,0-2.321-0.127-3.397-0.378C27.071,36.779,26.203,36.679,25.339,36.679z"/><path style="fill:#8697CB;" d="M17.277,40.744l-2.683-2.683c0.01,0.02,0.015,0.042,0.026,0.062L6.153,46.59l2.599,2.599l8.467-8.467 C17.237,40.732,17.259,40.734,17.277,40.744z"/><path style="fill:#38454F;" d="M7.908,44.835l-6.654,6.654c-0.492,0.492-0.492,1.291,0,1.783l0.816,0.816 c0.492,0.492,1.291,0.492,1.783,0l6.654-6.654L7.908,44.835z"/><path style="fill:#FFFFFF;" d="M37.652,21.98h-4v-2h1.333c0.552,0,1-0.448,1-1s-0.448-1-1-1h-1.333v-4c0-0.552-0.448-1-1-1 s-1,0.448-1,1v4h-2v-2.333c0-0.552-0.448-1-1-1s-1,0.448-1,1v2.333h-4c-0.552,0-1,0.448-1,1s0.448,1,1,1h4v2h-2 c-0.552,0-1,0.448-1,1s0.448,1,1,1h2v3c0,0.552,0.448,1,1,1s1-0.448,1-1v-3h2v2c0,0.552,0.448,1,1,1s1-0.448,1-1v-2h4 c0.552,0,1-0.448,1-1S38.204,21.98,37.652,21.98z M29.652,21.98v-2h2v2H29.652z"/><path style="fill:#FFFFFF;" d="M24.028,35.98c-2.206,0-4-2.243-4-5c0-0.552,0.448-1,1-1s1,0.448,1,1c0,1.626,0.916,3,2,3 c0.552,0,1,0.448,1,1S24.58,35.98,24.028,35.98z"/><path style="fill:#FFFFFF;" d="M45.028,47.98l-11.031-1.839c-0.033,0.199-0.108,0.392-0.262,0.546l-2.293,2.293l2.293,2.293 c0.153,0.153,0.229,0.347,0.262,0.546l11.031-1.839V47.98z"/></symbol><symbol id="game-1" viewBox="0 0 55.546 55.546"><title>game-1</title><path style="fill:#FAC176;" d="M54.697,11.631L43.956,0.889c-1.131-1.131-2.965-1.131-4.096,0L11.487,29.262 c-1.487,1.487-0.815,4.316,2.016,4.591c1.102,0.107,1.576,1.456,0.793,2.239L0.606,49.783c-0.807,0.807-0.807,2.116,0,2.924 l2.193,2.193c0.807,0.807,2.116,0.807,2.924,0l13.125-13.125c1.004-1.004,2.64-0.459,2.992,0.918 c0.592,2.312,3.111,2.782,4.485,1.408l8.98-8.98c-1.971-1.686-3.118-4.308-2.733-7.183c0.47-3.506,3.316-6.351,6.822-6.822 c2.874-0.386,5.497,0.761,7.183,2.733l8.122-8.122C55.828,14.595,55.828,12.761,54.697,11.631z"/><rect x="6.691" y="43.196" transform="matrix(-0.7071 0.7071 -0.7071 -0.7071 47.9385 73.7711)" style="fill:#38454F;" width="4" height="7.236"/><circle style="fill:#C2615F;" cx="40.497" cy="29.041" r="8"/></symbol><symbol id="sport" viewBox="0 0 54.118 54.118"><title>sport</title><path style="fill:#CBB292;" d="M51.493,49.238l-2.255,2.255c-3.5,3.5-9.228,3.5-12.728,0L2.625,17.608c-3.5-3.5-3.5-9.228,0-12.728 L4.88,2.625c3.5-3.5,9.228-3.5,12.728,0L51.493,36.51C54.993,40.01,54.993,45.738,51.493,49.238z"/><circle style="fill:#ECF0F1;" cx="9.579" cy="12.909" r="1.177"/><circle style="fill:#ECF0F1;" cx="12.909" cy="9.579" r="1.177"/><circle style="fill:#ECF0F1;" cx="12.909" cy="16.238" r="1.177"/><circle style="fill:#ECF0F1;" cx="16.238" cy="12.909" r="1.177"/><circle style="fill:#ECF0F1;" cx="38.712" cy="42.042" r="1.177"/><circle style="fill:#ECF0F1;" cx="42.042" cy="38.712" r="1.177"/><circle style="fill:#ECF0F1;" cx="42.042" cy="45.371" r="1.177"/><circle style="fill:#ECF0F1;" cx="45.371" cy="42.042" r="1.177"/><path style="fill:#38454F;" d="M12.076,27.059l-1.353,1.353c-0.632,0.632-1.656,0.632-2.288,0l-6.036-6.036 c-0.632-0.632-0.632-1.656,0-2.288l1.353-1.353L12.076,27.059z"/><path style="fill:#38454F;" d="M27.059,12.076l1.353-1.353c0.632-0.632,0.632-1.656,0-2.288l-6.036-6.036 c-0.632-0.632-1.656-0.632-2.288,0l-1.353,1.353L27.059,12.076z"/><path style="fill:#38454F;" d="M35.383,50.366l-1.353,1.353c-0.632,0.632-1.656,0.632-2.288,0l-6.036-6.036 c-0.632-0.632-0.632-1.656,0-2.288l1.353-1.353L35.383,50.366z"/><path style="fill:#38454F;" d="M50.366,35.383l1.353-1.353c0.632-0.632,0.632-1.656,0-2.288l-6.036-6.036 c-0.632-0.632-1.656-0.632-2.288,0l-1.353,1.353L50.366,35.383z"/></symbol><symbol id="gym-1" viewBox="0 0 58 58"><title>gym-1</title><rect x="3" y="52.475" style="fill:#D1D4D1;" width="5" height="3"/><rect x="50" y="52.475" style="fill:#D1D4D1;" width="5" height="3"/><circle style="fill:#38454F;" cx="45" cy="33.475" r="13"/><path style="fill:#546A79;" d="M15.95,12.475H4c-1.105,0-2-0.895-2-2v0c0-1.105,0.895-2,2-2l12.11,1.863 c0.512,0.079,0.89,0.519,0.89,1.038v0.05C17,12.005,16.53,12.475,15.95,12.475z"/><g> <path style="fill:#D1D4D1;" d="M8,45.475c-0.702,0-1.374-0.127-2-0.349v4.349h4v-4.349C9.374,45.348,8.702,45.475,8,45.475z"/> <path style="fill:#D1D4D1;" d="M8,33.475c0.702,0,1.374,0.127,2,0.349V12.475H6v21.349C6.626,33.602,7.298,33.475,8,33.475z"/> </g><path style="fill:#D1D4D1;" d="M45,46.475c-0.682,0-1.346-0.068-2-0.169v3.169h4v-3.169C46.346,46.407,45.682,46.475,45,46.475z"/><circle style="fill:#FFFFFF;stroke:#546A79;stroke-width:2;stroke-miterlimit:10;" cx="45" cy="33.475" r="3"/><path style="fill:none;stroke:#546A79;stroke-width:2;stroke-linecap:round;stroke-linejoin:round;stroke-miterlimit:10;" d=" M13.902,40.526c-0.049,0.277-0.114,0.547-0.2,0.809c-0.013,0.04-0.029,0.078-0.043,0.117c-0.087,0.248-0.188,0.487-0.305,0.719 c-0.015,0.03-0.028,0.061-0.044,0.09c-0.131,0.249-0.28,0.485-0.444,0.712c-0.025,0.034-0.05,0.068-0.076,0.101 c-0.347,0.461-0.758,0.87-1.222,1.214c-0.022,0.016-0.043,0.033-0.066,0.049c-0.239,0.172-0.489,0.328-0.752,0.464 c-0.008,0.004-0.016,0.007-0.023,0.011c-0.271,0.139-0.554,0.259-0.847,0.356l32.795-9.82C42.26,34.835,42,34.188,42,33.475H8 c3.314,0,6,2.686,6,6c0,0.298-0.029,0.588-0.071,0.874C13.921,40.408,13.913,40.468,13.902,40.526z"/><path style="fill:#D1D4D1;" d="M45,20.475c0.682,0,1.346,0.068,2,0.169v-4.169h-4v4.169C43.654,20.543,44.318,20.475,45,20.475z"/><polyline style="fill:none;stroke:#ECF0F1;stroke-width:2;stroke-miterlimit:10;" points="45,16.475 45,10.546 51,4.546 55,4.546 "/><polygon style="fill:#38454F;" points="55,2.546 57,2.546 58,3.546 58,5.546 57,6.546 55,6.546 54,5.546 54,3.546 "/><line style="fill:none;stroke:#38454F;stroke-width:2;stroke-miterlimit:10;" x1="47.243" y1="3.232" x2="43" y2="7.475"/><circle style="fill:#38454F;stroke:#546A79;stroke-width:2;stroke-miterlimit:10;" cx="8" cy="39.475" r="6"/><rect y="49.475" style="fill:#556080;" width="58" height="3"/></symbol><symbol id="gym" viewBox="0 0 58 58"><title>gym</title><path style="fill:#BDC3C7;" d="M9,33H0.778C0.348,33,0,32.652,0,32.222v-6.445C0,25.348,0.348,25,0.778,25H9V33z"/><rect x="17" y="25" style="fill:#BDC3C7;" width="24" height="8"/><g> <circle style="fill:#ECF0F1;" cx="23" cy="26" r="1"/> <circle style="fill:#ECF0F1;" cx="27" cy="26" r="1"/> <circle style="fill:#ECF0F1;" cx="25" cy="28" r="1"/> <circle style="fill:#ECF0F1;" cx="29" cy="28" r="1"/> <circle style="fill:#ECF0F1;" cx="31" cy="26" r="1"/> <circle style="fill:#ECF0F1;" cx="35" cy="26" r="1"/> <circle style="fill:#ECF0F1;" cx="23" cy="30" r="1"/> <circle style="fill:#ECF0F1;" cx="27" cy="30" r="1"/> <circle style="fill:#ECF0F1;" cx="31" cy="30" r="1"/> <circle style="fill:#ECF0F1;" cx="35" cy="30" r="1"/> <circle style="fill:#ECF0F1;" cx="33" cy="28" r="1"/> <circle style="fill:#ECF0F1;" cx="25" cy="32" r="1"/> <circle style="fill:#ECF0F1;" cx="29" cy="32" r="1"/> <circle style="fill:#ECF0F1;" cx="33" cy="32" r="1"/> </g><g> <path style="fill:#ECF0F1;" d="M3,32c-0.552,0-1,0.447-1,1v2c0,0.553,0.448,1,1,1s1-0.447,1-1v-2C4,32.447,3.552,32,3,32z"/> <path style="fill:#ECF0F1;" d="M6,32c-0.552,0-1,0.447-1,1v2c0,0.553,0.448,1,1,1s1-0.447,1-1v-2C7,32.447,6.552,32,6,32z"/> <path style="fill:#ECF0F1;" d="M3,22c-0.552,0-1,0.447-1,1v2c0,0.553,0.448,1,1,1s1-0.447,1-1v-2C4,22.447,3.552,22,3,22z"/> <path style="fill:#ECF0F1;" d="M6,22c-0.552,0-1,0.447-1,1v2c0,0.553,0.448,1,1,1s1-0.447,1-1v-2C7,22.447,6.552,22,6,22z"/> <rect x="2" y="27" style="fill:#ECF0F1;" width="2" height="4"/> <rect x="5" y="27" style="fill:#ECF0F1;" width="2" height="4"/> </g><rect x="9" y="17" style="fill:#546A79;" width="4" height="24"/><rect x="13" y="14" style="fill:#38454F;" width="4" height="30"/><path style="fill:#BDC3C7;" d="M49,25h8.222C57.652,25,58,25.348,58,25.778v6.445C58,32.652,57.652,33,57.222,33H49V25z"/><g> <path style="fill:#ECF0F1;" d="M55,22c-0.552,0-1,0.447-1,1v2c0,0.553,0.448,1,1,1s1-0.447,1-1v-2C56,22.447,55.552,22,55,22z"/> <path style="fill:#ECF0F1;" d="M52,22c-0.552,0-1,0.447-1,1v2c0,0.553,0.448,1,1,1s1-0.447,1-1v-2C53,22.447,52.552,22,52,22z"/> <path style="fill:#ECF0F1;" d="M55,32c-0.552,0-1,0.447-1,1v2c0,0.553,0.448,1,1,1s1-0.447,1-1v-2C56,32.447,55.552,32,55,32z"/> <path style="fill:#ECF0F1;" d="M52,32c-0.552,0-1,0.447-1,1v2c0,0.553,0.448,1,1,1s1-0.447,1-1v-2C53,32.447,52.552,32,52,32z"/> <rect x="54" y="27" style="fill:#ECF0F1;" width="2" height="4"/> <rect x="51" y="27" style="fill:#ECF0F1;" width="2" height="4"/> </g><rect x="45" y="17" style="fill:#546A79;" width="4" height="24"/><rect x="41" y="14" style="fill:#38454F;" width="4" height="30"/></symbol><symbol id="sports-3" viewBox="0 0 56 56"><title>sports-3</title><path style="fill:#D25627;" d="M0,49.554l0-3.637C0,20.558,20.558,0,45.916,0l3.637,0C53.114,0,56,2.886,56,6.446v3.637 C56,35.442,35.442,56,10.084,56H6.446C2.886,56,0,53.114,0,49.554z"/><path style="fill:#964229;" d="M56,10.083V6.446c0-1.42-0.465-2.729-1.243-3.794C27.205,10.747,13.696,19.325,3.599,55.331 C4.459,55.755,5.423,56,6.446,56h3.637C35.443,56,56,35.443,56,10.083z"/><g> <path style="fill:#ECF0F1;" d="M37.707,14.293l-7-7c-0.391-0.391-1.023-0.391-1.414,0s-0.391,1.023,0,1.414l7,7 C36.488,15.902,36.744,16,37,16s0.512-0.098,0.707-0.293C38.098,15.316,38.098,14.684,37.707,14.293z"/> <path style="fill:#ECF0F1;" d="M5.707,36.293c-0.391-0.391-1.023-0.391-1.414,0s-0.391,1.023,0,1.414l7,7 C11.488,44.902,11.744,45,12,45s0.512-0.098,0.707-0.293c0.391-0.391,0.391-1.023,0-1.414L5.707,36.293z"/> <path style="fill:#ECF0F1;" d="M19.707,14.293c-0.391-0.391-1.023-0.391-1.414,0s-0.391,1.023,0,1.414l7,7 C25.488,22.902,25.744,23,26,23s0.512-0.098,0.707-0.293c0.391-0.391,0.391-1.023,0-1.414L19.707,14.293z"/> <path style="fill:#ECF0F1;" d="M8.707,30.293c-0.391-0.391-1.023-0.391-1.414,0s-0.391,1.023,0,1.414l7,7 C14.488,38.902,14.744,39,15,39s0.512-0.098,0.707-0.293c0.391-0.391,0.391-1.023,0-1.414L8.707,30.293z"/> <path style="fill:#ECF0F1;" d="M15.707,19.293c-0.391-0.391-1.023-0.391-1.414,0s-0.391,1.023,0,1.414l7,7 C21.488,27.902,21.744,28,22,28s0.512-0.098,0.707-0.293c0.391-0.391,0.391-1.023,0-1.414L15.707,19.293z"/> <path style="fill:#ECF0F1;" d="M24.707,10.293c-0.391-0.391-1.023-0.391-1.414,0s-0.391,1.023,0,1.414l7,7 C30.488,18.902,30.744,19,31,19s0.512-0.098,0.707-0.293c0.391-0.391,0.391-1.023,0-1.414L24.707,10.293z"/> <path style="fill:#ECF0F1;" d="M11.707,24.293c-0.391-0.391-1.023-0.391-1.414,0s-0.391,1.023,0,1.414l7,7 C17.488,32.902,17.744,33,18,33s0.512-0.098,0.707-0.293c0.391-0.391,0.391-1.023,0-1.414L11.707,24.293z"/> </g></symbol><symbol id="transport" viewBox="0 0 59.654 59.654"><title>transport</title><ellipse style="fill:#546A79;stroke:#38454F;stroke-width:2;stroke-miterlimit:10;" cx="11.943" cy="35.904" rx="10.943" ry="10.974"/><path style="fill:#77909E;" d="M5.549,35.916c-0.052,0-0.105-0.004-0.159-0.013c-0.545-0.087-0.917-0.601-0.829-1.146 c0.424-2.646,2.231-4.889,4.714-5.853c0.515-0.202,1.094,0.055,1.294,0.57c0.2,0.515-0.056,1.094-0.57,1.294 c-1.796,0.697-3.156,2.387-3.463,4.305C6.457,35.566,6.032,35.916,5.549,35.916z"/><ellipse style="fill:#546A79;stroke:#38454F;stroke-width:2;stroke-miterlimit:10;" cx="47.711" cy="35.904" rx="10.943" ry="10.974"/><path style="fill:none;stroke:#38454F;stroke-width:2;stroke-linecap:round;stroke-miterlimit:10;" d="M43.315,22.353 c4.629-2.026,8.805-0.92,12.003,1.446"/><line style="fill:none;stroke:#38454F;stroke-width:2;stroke-linecap:round;stroke-miterlimit:10;" x1="20.75" y1="13.745" x2="22.75" y2="13.745"/><path style="fill:#C03A2B;" d="M48.405,36.002c0.043-0.188,0.05-0.385-0.025-0.578l-6.08-15.68h0.45c0.552,0,1-0.448,1-1 s-0.448-1-1-1h-1.226l-0.099-0.255c-0.018-0.046-0.053-0.078-0.077-0.12c-0.017-0.033-0.038-0.062-0.059-0.093 c-0.062-0.085-0.131-0.156-0.214-0.217c-0.025-0.019-0.036-0.048-0.064-0.065c-0.019-0.012-0.041-0.012-0.061-0.022 c-0.062-0.032-0.126-0.051-0.193-0.07c-0.06-0.017-0.117-0.035-0.178-0.04c-0.061-0.006-0.121,0.003-0.183,0.009 c-0.07,0.007-0.137,0.014-0.203,0.036c-0.02,0.006-0.041,0.003-0.061,0.011c-0.038,0.015-0.064,0.044-0.099,0.063 c-0.062,0.033-0.121,0.066-0.176,0.112c-0.053,0.044-0.094,0.095-0.136,0.148c-0.026,0.033-0.061,0.054-0.083,0.09l-0.249,0.412 H22.779c-0.001,0-0.001,0-0.002,0H22.75c-0.059,0-0.109,0.024-0.165,0.033c-0.066,0.011-0.132,0.009-0.196,0.034l-8.031,3.113 c-0.515,0.2-0.771,0.779-0.571,1.294c0.154,0.396,0.532,0.639,0.933,0.639c0.121,0,0.243-0.022,0.361-0.068l3.89-1.508l9.753,15.163 c0.006,0.009,0.015,0.016,0.021,0.025c0.013,0.019,0.03,0.034,0.044,0.052c0.001,0.002,0.004,0.003,0.005,0.005 c-0.016,0.072-0.044,0.14-0.044,0.217c0,0.552,0.448,1,1,1h18c0.552,0,1-0.448,1-1C48.75,36.446,48.613,36.186,48.405,36.002z M20.874,20.545l2.064-0.8h15.24l-8.639,14.271L20.874,20.545z M30.83,35.745l9.466-15.637l6.064,15.637H30.83z"/><path style="fill:#77909E;" d="M55.174,35.916c-0.483,0-0.908-0.35-0.986-0.842c-0.308-1.918-1.666-3.608-3.463-4.305 c-0.515-0.2-0.77-0.779-0.57-1.294c0.199-0.516,0.778-0.771,1.294-0.57c2.484,0.963,4.29,3.207,4.714,5.853 c0.087,0.545-0.284,1.058-0.829,1.146C55.279,35.913,55.226,35.916,55.174,35.916z"/><path style="fill:#BDC3C7;" d="M20.794,11.776c-3.937,0-7.024,4.364-7.071,9.956l-2.981,13.964 c-0.115,0.541,0.229,1.072,0.769,1.187c0.071,0.015,0.141,0.022,0.21,0.022c0.462,0,0.876-0.321,0.977-0.791l2.999-14.046 c0.008-0.036-0.003-0.07,0.001-0.106c0.004-0.036,0.021-0.066,0.021-0.103c0-4.381,2.324-8.082,5.075-8.082c0.552,0,1-0.448,1-1 S21.347,11.776,20.794,11.776z"/><line style="fill:none;stroke:#BDC3C7;stroke-width:2;stroke-linecap:round;stroke-miterlimit:10;" x1="40.75" y1="16.745" x2="40.75" y2="18.745"/><line style="fill:none;stroke:#CB8252;stroke-width:2;stroke-linecap:round;stroke-miterlimit:10;" x1="37.75" y1="15.745" x2="43.75" y2="15.745"/></symbol><symbol id="ball" viewBox="0 0 54 54"><title>ball</title><ellipse style="fill:#88C057;" cx="27" cy="40" rx="27" ry="11.5"/><ellipse style="fill:#659C35;" cx="19" cy="40.833" rx="18" ry="7.667"/><ellipse style="fill:#38454F;" cx="21.071" cy="39.222" rx="6.071" ry="4.722"/><polygon style="fill:#E64C3C;" points="19,3.5 37,8.5 19,14.5 "/><circle style="fill:#FFFFFF;" cx="40" cy="42.5" r="3"/><line style="fill:none;stroke:#ECF0F1;stroke-width:2;stroke-linecap:round;stroke-miterlimit:10;" x1="19" y1="38.5" x2="19" y2="3.5"/></symbol><symbol id="sports-2" viewBox="0 0 55.897 55.897"><title>sports-2</title><path style="fill:#E6E6E6;" d="M8.454,42.09c0-2.362-0.954-4.559-2.685-6.187c-0.003-0.003-0.004-0.007-0.007-0.009 c-1.435,1.664-2.308,3.826-2.308,6.196c0,2.37,0.873,4.532,2.308,6.196c0.003-0.003,0.004-0.006,0.006-0.009 C7.5,46.648,8.454,44.451,8.454,42.09z"/><path style="fill:#E6E6E6;" d="M18.689,34.529c-1.595-1.212-3.578-1.939-5.735-1.939s-4.14,0.727-5.735,1.939 c2.084,2.002,3.235,4.68,3.235,7.561c0,2.88-1.151,5.559-3.235,7.561c1.595,1.212,3.578,1.939,5.735,1.939s4.14-0.727,5.735-1.939 c-2.084-2.002-3.235-4.681-3.235-7.561C15.454,39.209,16.605,36.531,18.689,34.529z"/><path style="fill:#E6E6E6;" d="M17.454,42.09c0,2.361,0.954,4.559,2.685,6.187c0.003,0.003,0.004,0.006,0.006,0.009 c1.435-1.664,2.308-3.826,2.308-6.196c0-2.37-0.873-4.532-2.308-6.196c-0.003,0.003-0.004,0.007-0.007,0.009 C18.407,37.531,17.454,39.728,17.454,42.09z"/><path style="fill:#E64C3C;" d="M7.219,34.529c-0.532,0.404-1.021,0.86-1.456,1.365c0.003,0.003,0.004,0.007,0.007,0.009 c1.731,1.628,2.685,3.825,2.685,6.187c0,2.361-0.954,4.559-2.685,6.187c-0.003,0.003-0.004,0.006-0.006,0.009 c0.436,0.505,0.925,0.961,1.457,1.365c2.084-2.002,3.235-4.681,3.235-7.561C10.454,39.209,9.303,36.531,7.219,34.529z"/><path style="fill:#E64C3C;" d="M20.145,48.286c-0.003-0.003-0.004-0.006-0.006-0.009c-1.731-1.628-2.685-3.826-2.685-6.187 c0-2.362,0.954-4.559,2.685-6.187c0.003-0.003,0.004-0.007,0.007-0.009c-0.436-0.505-0.925-0.961-1.456-1.365 c-2.084,2.002-3.235,4.68-3.235,7.561c0,2.88,1.151,5.559,3.235,7.561C19.221,49.247,19.71,48.791,20.145,48.286z"/><path style="fill:#CBB292;" d="M54.731,49.365l-5.657,5.657c-1.167,1.167-3.076,1.167-4.243,0l0,0c-1.167-1.167-1.167-3.076,0-4.243 l5.657-5.657c1.167-1.167,3.076-1.167,4.243,0l0,0C55.898,46.289,55.898,48.199,54.731,49.365z"/><g> <path style="fill:#CBB292;" d="M49.454,46.207L12.807,2.996c-1.981-2.336-5.109-3.52-8.078-2.773 C3.712,0.479,2.781,0.94,2.019,1.684C0.725,2.948,0.236,4.713,0.296,6.711c0.07,2.321,1.184,4.492,2.958,5.99l43.2,36.506 L49.454,46.207z"/> </g><polygon style="fill:#38454F;" points="26.338,32.208 46.454,49.207 49.454,46.207 32.422,26.124 "/></symbol><symbol id="sports-1" viewBox="0 0 53.88 53.88"><title>sports-1</title><path style="fill:#E64C3C;" d="M44.421,1.984C42.603,0.636,40.354,0,38.092,0l-7.394,0l-8.688,0c-0.388,0-0.772,0.045-1.147,0.143 c-1.903,0.501-7.41,2.516-7.41,9.054L15.943,37c0,0,3.226,2.06,9,3l0.006-5.51c0-3.207,2.913-5.557,6.129-5.489 c3.231,0.068,5.865,2.993,5.865,6.224l0,4.774c5.987-0.925,9-3,9-3l2-27.803C47.943,5.575,46.252,3.341,44.421,1.984z"/><g> <path style="fill:#38454F;" d="M36.943,40v13c5.311-0.893,8-3,8-3V37.569C43.61,38.252,40.944,39.382,36.943,40z"/> <path style="fill:#38454F;" d="M16.943,50c0,0,3.197,1.986,8,3V40c-3.902-0.635-6.634-1.78-8-2.457V50z"/> </g><path style="fill:#ED7161;" d="M42.943,16c-0.552,0-1-0.447-1-1c0-4.963-4.038-9-9-9c-0.552,0-1-0.447-1-1s0.448-1,1-1 c6.065,0,11,4.935,11,11C43.943,15.553,43.495,16,42.943,16z"/><path style="fill:#C03A2B;" d="M5.943,16.701v7.653c0,0.767,0.281,1.507,0.791,2.081L15.943,37l-2.151-24.009 C11.494,12.844,5.739,12.766,5.943,16.701z"/><path style="fill:#E6E7E8;" d="M24.949,34.49c0-3.162,2.832-5.49,5.994-5.49h0c3.162,0,6,2.443,6,5.605V53l0,0 c-4.982,1.15-7.305,1.198-12,0L24.949,34.49z"/><g> <path style="fill:#556080;" d="M32.357,37l2.293-2.293c0.391-0.391,0.391-1.023,0-1.414s-1.023-0.391-1.414,0l-2.293,2.293 l-2.293-2.293c-0.391-0.391-1.023-0.391-1.414,0s-0.391,1.023,0,1.414L29.529,37l-2.293,2.293c-0.391,0.391-0.391,1.023,0,1.414 C27.431,40.902,27.687,41,27.943,41s0.512-0.098,0.707-0.293l2.293-2.293l2.293,2.293C33.431,40.902,33.687,41,33.943,41 s0.512-0.098,0.707-0.293c0.391-0.391,0.391-1.023,0-1.414L32.357,37z"/> <path style="fill:#556080;" d="M34.65,43.293c-0.391-0.391-1.023-0.391-1.414,0l-2.293,2.293l-2.293-2.293 c-0.391-0.391-1.023-0.391-1.414,0s-0.391,1.023,0,1.414L29.529,47l-2.293,2.293c-0.391,0.391-0.391,1.023,0,1.414 C27.431,50.902,27.687,51,27.943,51s0.512-0.098,0.707-0.293l2.293-2.293l2.293,2.293C33.431,50.902,33.687,51,33.943,51 s0.512-0.098,0.707-0.293c0.391-0.391,0.391-1.023,0-1.414L32.357,47l2.293-2.293C35.04,44.316,35.04,43.684,34.65,43.293z"/> </g></symbol><symbol id="sports" viewBox="0 0 56 56"><title>sports</title><circle style="fill:#E57E25;" cx="28" cy="28" r="28"/><path style="fill:#38454F;" d="M0.729,30.188c3.621-3.458,9.574-4.556,13.853-2.558c-3.798,5.417-6.596,11.581-8.155,18.219 c0.471,0.569,0.968,1.114,1.482,1.643c0.141-0.133,0.252-0.3,0.296-0.503c1.471-6.684,4.259-12.877,8.075-18.296 c2.555,1.983,3.809,5.247,3.525,9.435l-0.004,0.054l0.002,0.055c0.251,6.063,3.746,11.611,9.348,14.839 c1.762,1.016,3.608,1.723,5.466,2.129c1.658-0.402,3.256-0.952,4.784-1.634c-3.049,0.236-6.277-0.514-9.252-2.228 c-4.989-2.875-8.105-7.782-8.346-13.136c0.395-6.064-2.008-9.374-4.324-11.145c1.487-1.945,3.112-3.778,4.858-5.488 c7.154,6.653,13.881,13.779,20.076,21.313l4.313,5.247l1.545-1.271l-4.313-5.247c-6.223-7.568-12.977-14.728-20.16-21.416 c1.39-1.259,2.85-2.442,4.373-3.543c2.39,3.021,6.233,4.501,11.036,4.185c4.519,0.205,8.76,2.665,11.643,6.754 c2.242,3.18,3.383,6.962,3.269,10.49c0.623-1.611,1.099-3.294,1.417-5.033c-0.592-2.311-1.617-4.575-3.051-6.609 c-3.255-4.617-8.084-7.388-13.248-7.602l-0.055-0.002l-0.054,0.004c-4.07,0.274-7.294-0.911-9.295-3.34 c5.142-3.417,10.935-5.93,17.155-7.3c0.203-0.045,0.365-0.161,0.498-0.302c-0.528-0.512-1.072-1.008-1.639-1.477 c-6.19,1.454-11.965,3.99-17.109,7.407c-1.946-3.908-1.265-9.4,1.667-13.169l0.407-0.523C29.888,0.048,28.95,0,28,0v0.614 c-2.774,4.391-3.187,10.109-0.926,14.371c-1.659,1.195-3.245,2.483-4.753,3.857c-3.269-2.989-6.615-5.891-10.053-8.674L8.953,7.484 C8.461,7.941,7.987,8.415,7.529,8.906l3.481,2.818c3.369,2.727,6.649,5.569,9.855,8.497c-1.829,1.798-3.531,3.726-5.085,5.772 c-0.114-0.058-0.23-0.118-0.339-0.169C10.698,23.603,4.46,24.534,0.19,28H0c0,0.93,0.048,1.848,0.136,2.754L0.729,30.188z"/></symbol><symbol id="game" viewBox="0 0 59 59"><title>game</title><circle style="fill:#E6E7E8;stroke:#ECF0F1;stroke-miterlimit:10;" cx="29.5" cy="29.5" r="29"/><polygon style="fill:#38454F;" points="36.863,38.5 23.467,38.5 18.863,26.5 29.863,18.5 40.863,26.5 "/><g> <path style="fill:#38454F;" d="M24.31,37.605c-0.494-0.248-1.095-0.047-1.342,0.447l-0.447,0.895 c-0.247,0.494-0.047,1.095,0.447,1.342c0.144,0.072,0.296,0.105,0.446,0.105c0.367,0,0.72-0.202,0.896-0.553l0.447-0.895 C25.005,38.453,24.805,37.853,24.31,37.605z"/> <path style="fill:#38454F;" d="M22.521,41.183c-0.494-0.248-1.094-0.047-1.342,0.447l-0.447,0.895 c-0.247,0.494-0.047,1.095,0.447,1.342c0.144,0.072,0.296,0.105,0.446,0.105c0.367,0,0.72-0.202,0.896-0.553l0.447-0.895 C23.216,42.031,23.016,41.43,22.521,41.183z"/> <path style="fill:#38454F;" d="M38.205,38.947l-0.447-0.895c-0.248-0.495-0.847-0.695-1.342-0.447 c-0.494,0.247-0.694,0.848-0.447,1.342l0.447,0.895c0.176,0.351,0.528,0.553,0.896,0.553c0.15,0,0.303-0.034,0.446-0.105 C38.252,40.042,38.452,39.441,38.205,38.947z"/> <path style="fill:#38454F;" d="M39.547,41.63c-0.247-0.495-0.848-0.695-1.342-0.447c-0.494,0.247-0.694,0.848-0.447,1.342 l0.447,0.895c0.176,0.351,0.528,0.553,0.896,0.553c0.15,0,0.303-0.034,0.446-0.105c0.494-0.247,0.694-0.848,0.447-1.342 L39.547,41.63z"/> <path style="fill:#38454F;" d="M16.853,24.551l-0.919-0.394c-0.509-0.218-1.097,0.017-1.313,0.525 c-0.218,0.507,0.018,1.096,0.524,1.313l0.919,0.394c0.129,0.055,0.263,0.082,0.395,0.082c0.388,0,0.757-0.228,0.919-0.606 C17.596,25.356,17.36,24.769,16.853,24.551z"/> <path style="fill:#38454F;" d="M13.177,22.975l-0.919-0.394c-0.509-0.216-1.097,0.018-1.313,0.525 c-0.218,0.507,0.018,1.095,0.524,1.313l0.919,0.394c0.129,0.055,0.263,0.082,0.395,0.082c0.388,0,0.757-0.228,0.919-0.606 C13.919,23.781,13.683,23.192,13.177,22.975z"/> <path style="fill:#38454F;" d="M29.863,10.5c-0.553,0-1,0.448-1,1v1c0,0.552,0.447,1,1,1s1-0.448,1-1v-1 C30.863,10.948,30.416,10.5,29.863,10.5z"/> <path style="fill:#38454F;" d="M29.863,14.5c-0.553,0-1,0.448-1,1v1c0,0.552,0.447,1,1,1s1-0.448,1-1v-1 C30.863,14.948,30.416,14.5,29.863,14.5z"/> <path style="fill:#38454F;" d="M43.792,24.157l-0.919,0.394c-0.507,0.218-0.742,0.806-0.524,1.313 c0.162,0.379,0.531,0.606,0.919,0.606c0.132,0,0.266-0.026,0.395-0.082l0.919-0.394c0.507-0.217,0.742-0.806,0.524-1.313 C44.888,24.173,44.3,23.938,43.792,24.157z"/> <path style="fill:#38454F;" d="M48.782,23.106c-0.218-0.509-0.806-0.742-1.313-0.525l-0.919,0.394 c-0.507,0.217-0.742,0.806-0.524,1.313c0.162,0.379,0.531,0.606,0.919,0.606c0.132,0,0.266-0.026,0.395-0.082l0.919-0.394 C48.765,24.201,49,23.613,48.782,23.106z"/> </g><path style="fill:#435159;" d="M22.345,1.49l-2.497,3.59L29.863,11.5l9-6.882l-2.266-3.24c-2.215-0.557-4.531-0.859-6.915-0.874 C27.145,0.52,24.687,0.863,22.345,1.49z"/><path style="fill:#435159;" d="M49.493,12.5l-1.63,11l10.007,6.077l0.603-1.151c-0.209-5.719-2.071-11.014-5.126-15.422L49.493,12.5 z"/><path style="fill:#435159;" d="M50.666,49.314l0.197-4.81l-11-0.004L35.07,55.105l4.146,1.722 C43.622,55.26,47.534,52.658,50.666,49.314z"/><path style="fill:#435159;" d="M20.863,44.5l-12,0.004l0.214,5.208c3.114,3.202,6.96,5.685,11.27,7.182l4.309-1.789L20.863,44.5z"/><path style="fill:#435159;" d="M11.863,23.5l-1.63-11l-4.254,0.556c-2.92,4.233-4.743,9.278-5.061,14.729l0.939,1.792L11.863,23.5z"/></symbol><symbol id="beach" viewBox="0 0 50 50"><title>beach</title><ellipse transform="matrix(0.8118 0.5839 -0.5839 0.8118 19.69 -13.635)" style="fill:#E6E6E6;" cx="31" cy="23.732" rx="9" ry="28.5"/><g> <path style="fill:#8697CB;" d="M23.887,18.213C15.802,6.307,6.553-1.126,2.614,1.37c-4.199,2.66-0.773,15.595,7.651,28.891 c1.28,2.021,2.603,3.932,3.939,5.713c1.728-5.067,5.011-11.272,9.489-17.497C23.757,18.387,23.822,18.301,23.887,18.213z"/> <path style="fill:#8697CB;" d="M42.179,45c0,0-2.446-5.125-7.7-3.981c-0.325-1.628-0.824-3.417-1.5-5.332 c-3.674,4.168-7.341,7.44-10.529,9.467c4.48,3.993,8.433,5.782,10.672,4.364c1.237-0.784,1.807-2.464,1.787-4.778 C38.64,43.005,42.179,45,42.179,45z"/> </g><path style="fill:#556080;" d="M32.318,46.626C36.804,41.969,42.179,45,42.179,45s-3.766-7.907-12-1.899L32.318,46.626z"/><path style="fill:#F0C419;" d="M5.826,6.438l-3.843,6.377c1.198,4.087,3.293,8.895,6.14,13.882l4.662-9.278l10.38-0.253 c-3.294-4.704-6.746-8.652-9.93-11.48L5.826,6.438z"/></symbol></svg>